<?xml version="1.0" encoding="utf-8"?>
<!-- Generator: Adobe Illustrator 19.0.0, SVG Export Plug-In . SVG Version: 6.00 Build 0)  -->
<svg version="1.1" id="Layer_1" xmlns="http://www.w3.org/2000/svg" xmlns:xlink="http://www.w3.org/1999/xlink" x="0px" y="0px"
	 viewBox="0 0 500 500" style="enable-background:new 0 0 500 500;" xml:space="preserve">
<style type="text/css">
	.st0{fill:#DA3743;}
	.st1{fill:#333333;}
</style>
<g id="XMLID_1_">
	<path id="XMLID_6_" class="st0" d="M138.6,209.5c-22.4,0-40.5,18.2-40.5,40.5s18.2,40.5,40.5,40.5c22.3,0,40.5-18.2,40.5-40.5
		C179.1,227.7,161,209.5,138.6,209.5z M138.6,260.2c-5.6,0-10.2-4.5-10.2-10.2s4.5-10.2,10.2-10.2c5.6,0,10.2,4.5,10.2,10.2
		C148.7,255.6,144.2,260.2,138.6,260.2z M67.5,250c0-5.6,4.5-10.2,10.2-10.2c5.6,0,10.2,4.5,10.2,10.2s-4.5,10.2-10.2,10.2
		C72,260.2,67.5,255.6,67.5,250"/>
	<path id="XMLID_26_" class="st1" d="M275.5,242.2c6,0,10.6,4.4,10.6,10.7c0,0.3-0.1,1.1-0.1,1.5c-0.1,0.6-0.6,1-1.1,1h-14.8
		c0.1,2.8,2.4,5.4,5.7,5.4c2.3,0,3.9-0.9,4.9-1.7c0.5-0.4,1.1-0.5,1.5,0l2,2.6c0.4,0.4,0.4,1-0.1,1.5c-2,1.7-4.9,3.2-8.6,3.2
		c-6.9,0-11.7-5.5-11.7-12.1C263.9,247.8,268.6,242.2,275.5,242.2z M279.8,251.4c-0.1-2.2-1.9-4-4.4-4c-2.8,0-4.6,1.7-4.9,4H279.8z
		 M335.8,233.4h-23.5c-0.5,0-0.9,0.4-0.9,0.9v4.1c0,0.5,0.4,0.9,0.9,0.9h8.4v25.6c0,0.5,0.4,0.9,0.9,0.9h4.6c0.5,0,0.9-0.4,0.9-0.9
		v-25.6h8.4c0.5,0,0.9-0.4,0.9-0.9v-4.1C336.7,233.8,336.3,233.4,335.8,233.4z M371.1,242.2c-2.3,0-4.6,0.5-5.6,1v-8.8
		c0-0.5-0.5-1.1-1.1-1.1h-4c-0.5,0-1.1,0.5-1.1,1.1v30.3c0,0.6,0.5,1.1,1.1,1.1h1.8h0.1h0.4c0.6,0,1.1-0.5,1.1-1.1v-1.7V263
		c0,0,2.6,3.4,7.7,3.4c6.3,0,10.8-5.5,10.8-12.1C382.3,247.5,377.9,242.2,371.1,242.2z M370.6,260.7c-3,0-4.6-1.9-5.1-3.2v-8.3
		c0,0,1.9-1.3,4.8-1.3c3.8,0,5.7,3.1,5.7,6.3S374.2,260.7,370.6,260.7z M409.6,242.2c6,0,10.6,4.4,10.6,10.7c0,0.3-0.1,1.1-0.1,1.5
		c-0.1,0.6-0.6,1-1.1,1h-14.8c0.1,2.8,2.4,5.4,5.7,5.4c2.3,0,3.9-0.9,4.9-1.7c0.5-0.4,1.1-0.5,1.5,0l2,2.6c0.4,0.4,0.4,1-0.1,1.5
		c-2,1.7-4.9,3.2-8.6,3.2c-6.9,0-11.7-5.5-11.7-12.1C398,247.8,402.8,242.2,409.6,242.2z M413.9,251.4c-0.1-2.2-1.9-4-4.4-4
		c-2.8,0-4.6,1.7-4.9,4H413.9z M249.1,242.2c-4.8,0-7.4,3.2-7.5,3.4v-1.9c0-0.6-0.5-1.1-1.1-1.1H238c-0.6,0-1.1,0.5-1.1,1.1v30.3
		c0,0.5,0.5,1.1,1.1,1.1h4c0.5,0,1.1-0.5,1.1-1.1v-8.6c1,0.4,3.2,0.9,5.5,0.9c6.9,0,11.4-5.3,11.4-12
		C260.2,247.4,255.4,242.2,249.1,242.2z M248,260.7c-2.9,0-4.8-1.3-4.8-1.3v-8.3c0.5-1.3,2.1-3.2,5.1-3.2c3.6,0,5.5,3.2,5.5,6.4
		C253.8,257.5,251.8,260.7,248,260.7z M303,242.2c-4.4,0-6.6,2.4-7.4,3.3v-1.7c0-0.6-0.5-1.1-1.1-1.1h-2.6c-0.5,0-1.1,0.4-1.1,1.1
		v20.9c0,0.6,0.5,1.1,1.1,1.1h3.7c1.1,0,1.5-0.3,1.5-1.1v-13.2c0.5-1.6,2-3.6,5-3.6c2.8,0,4,1.9,4,4.9v11.9c0,0.6,0.5,1.1,1.1,1.1h4
		c0.5,0,1.1-0.5,1.1-1.1v-11.9C312.2,247.2,310.4,242.2,303,242.2z M345,242.2c-3.8,0-7.4,0.9-7.9,1.1c-0.5,0.2-0.9,0.5-0.8,1.4
		l0.5,2.6c0.1,0.7,0.5,1.3,1.3,1c1.4-0.4,4.4-0.9,6.5-0.9c2.5,0,3.3,1.4,3.2,4.4c0,0-2.1-0.7-4.4-0.7c-5.9,0-9.2,3.2-9.2,7.3
		c0,4.9,3.2,7.9,7.8,7.9c3.6,0,5.9-1.6,7.3-2.9v1.3c0,0.6,0.5,1.1,1.1,1.1h0.4c0,0,0.1,0,0.2,0h1.7c0.6,0,1.1-0.5,1.1-1.1v-12.4
		C353.7,246,352.1,242.2,345,242.2z M347.6,259.3c-0.3,0.9-2.1,2.5-4.2,2.5c-2.1,0-3.3-1.3-3.3-3.2c0-2,1.5-3.3,4.1-3.3
		c1.9,0,3.4,0.7,3.4,0.7V259.3z M215.8,233.4c-9.1,0-16.5,7.4-16.5,16.6c0,9.3,7.3,16.5,16.5,16.5s16.5-7.3,16.5-16.5
		C232.4,240.8,225,233.4,215.8,233.4z M215.8,239.8c5.5,0,10.2,4.7,10.2,10.2s-4.5,10.2-10.2,10.2c-5.5,0-10.1-4.5-10.1-10.2
		C205.7,244.4,210.2,239.8,215.8,239.8z M393.9,265.9c0.6,0,1.1-0.5,1.1-1.1v-4.1c0-0.6-0.5-1.1-1.1-1.1h-0.2c-0.5,0-1-0.5-1-1v-0.2
		v-23.9c0-0.5-0.5-1.1-1.1-1.1h-4c-0.5,0-1.1,0.5-1.1,1.1v26.7v0.7c0,2,2,4,4,4L393.9,265.9z M423.6,246.9c0-2.8,2-4.7,4.4-4.7
		c2.5,0,4.4,1.9,4.4,4.7s-2,4.7-4.4,4.7S423.6,249.7,423.6,246.9z M431.6,246.9c0-2.2-1.5-3.8-3.5-3.8c-2,0-3.5,1.6-3.5,3.8
		s1.5,3.8,3.5,3.8C430.1,250.8,431.6,249.1,431.6,246.9z M426.4,244.5h1.8c1,0,1.9,0.4,1.9,1.5c0,0.6-0.3,1.1-0.9,1.3l1.1,2h-1.2
		l-0.9-1.6h-0.9v1.6h-0.9V244.5z M428,246.8c0.6,0,1-0.3,1-0.8s-0.3-0.8-0.9-0.8h-0.7v1.6L428,246.8L428,246.8z"/>
</g>
</svg>
